<?xml version="1.0" encoding="UTF-8"?>
<svg width="14px" height="10px" viewBox="0 0 14 10" version="1.1" xmlns="http://www.w3.org/2000/svg" xmlns:xlink="http://www.w3.org/1999/xlink">
    <title>cloud-l</title>
    <defs>
        <linearGradient x1="50%" y1="11.3938244%" x2="50%" y2="85.4873315%" id="linearGradient-1">
            <stop stop-color="#FFFFFF" offset="0%"></stop>
            <stop stop-color="#D9DCEC" offset="100%"></stop>
        </linearGradient>
    </defs>
    <g id="cloud-l" stroke="none" stroke-width="1" fill="none" fill-rule="evenodd">
        <g id="cloud-download-icon" fill="url(#linearGradient-1)" stroke="#1B1F23">
            <path d="M4.62448373,1.03946337 C5.3814673,0.573655311 6.32204757,0.393225514 7.33092536,0.562530012 C8.55171981,0.768129005 9.41916318,1.46365032 10.0004287,2.50044479 C11.0294629,2.71260791 11.4958093,2.77700385 11.9125547,2.94178776 C12.7018005,3.25319381 13.1727051,3.87611114 13.3743493,4.64981702 C13.535665,5.26726393 13.5541567,5.95050033 13.3597483,6.56369882 C13.0694499,7.48234221 12.3606361,7.93483961 11.4670546,8.22999955 C11.2529334,8.29947888 11.0451681,8.35503502 10.842531,8.40040747 C10.4150937,8.46978185 9.28121638,8.49474964 7.99412925,8.49932213 L7.99412925,8.49932213 L7.3154227,8.49965108 L7.3154227,8.49965108 L6.74152644,8.49703219 C5.11360144,8.48618363 3.50742052,8.44728029 2.88616231,8.4080253 C2.641915,8.37745715 2.45428366,8.33922908 2.27386815,8.28479368 C1.47202722,8.04441945 0.895631406,7.52402435 0.631418012,6.74775756 C0.449154111,6.21104249 0.460214793,5.63311503 0.641576381,5.09769661 C0.786608353,4.6702599 0.990236139,4.37574096 1.28086748,4.15503855 C1.66392884,3.86385932 2.19837765,3.6787445 2.67305898,3.54991085 C3.29703389,2.25631678 3.86643727,1.50592546 4.62448373,1.03946337 Z" id="Shape"></path>
        </g>
    </g>
</svg>