<?xml version="1.0" encoding="UTF-8"?>
<svg width="12px" height="9px" viewBox="0 0 12 9" version="1.1" xmlns="http://www.w3.org/2000/svg" xmlns:xlink="http://www.w3.org/1999/xlink">
    <title>cloud</title>
    <defs>
        <linearGradient x1="50%" y1="11.3938244%" x2="50%" y2="85.4873315%" id="linearGradient-1">
            <stop stop-color="#FFFFFF" offset="0%"></stop>
            <stop stop-color="#D9DCEC" offset="100%"></stop>
        </linearGradient>
    </defs>
    <g id="cloud" stroke="none" stroke-width="1" fill="none" fill-rule="evenodd">
        <g id="cloud-download-icon" fill="url(#linearGradient-1)" stroke="#1B1F23" stroke-width="0.857142857">
            <path d="M3.96978546,0.906724901 C4.61625175,0.494190007 5.41949734,0.333991918 6.28109087,0.483935065 C7.32834004,0.666838866 8.07041227,1.28752844 8.56862013,2.20908709 C9.45257987,2.39547816 9.85032933,2.45240268 10.205758,2.59814668 C10.8860498,2.87650503 11.2892251,3.43487104 11.4627955,4.12552421 C11.6024347,4.67979821 11.6181517,5.29306136 11.4499052,5.84339539 C11.200477,6.66193937 10.5934537,7.06870729 9.8244951,7.33211026 C9.64150461,7.39368728 9.46394105,7.44293652 9.29076085,7.48316719 C8.93137263,7.54358338 7.98943674,7.56582634 6.91323901,7.57057804 L6.91323901,7.57057804 L6.29137806,7.57116825 C6.19979489,7.57096022 6.1078516,7.57063039 6.01578573,7.57018584 L5.46381958,7.56619843 C4.18133372,7.55394651 2.96793058,7.52198426 2.4753828,7.48974439 C2.26713295,7.46269891 2.10709265,7.42889143 1.95319269,7.38073657 C1.26301842,7.16617462 0.769752084,6.69935491 0.542695309,6.00754795 C0.384447147,5.52429328 0.393914026,5.0039044 0.55140037,4.52175109 C0.676829676,4.13839589 0.852456687,3.87409047 1.10385177,3.67611305 C1.43158201,3.4177664 1.88896537,3.25338925 2.29505097,3.13909114 C2.82811158,1.99380903 3.31712695,1.32321129 3.96978546,0.906724901 Z" id="Shape"></path>
        </g>
    </g>
</svg>