<?xml version="1.0" encoding="UTF-8"?>
<svg width="12px" height="10px" viewBox="0 0 12 10" version="1.1" xmlns="http://www.w3.org/2000/svg" xmlns:xlink="http://www.w3.org/1999/xlink">
    <title>folder</title>
    <defs>
        <linearGradient x1="50%" y1="22.5267035%" x2="50%" y2="99.2111151%" id="linearGradient-1">
            <stop stop-color="#FFFFFF" offset="0%"></stop>
            <stop stop-color="#D9DCEC" offset="100%"></stop>
        </linearGradient>
    </defs>
    <g id="folder" stroke="none" stroke-width="1" fill="none" fill-rule="evenodd">
        <path d="M3.6449598,0.5 C4.00489647,0.5 4.35009106,0.642984283 4.60460472,0.89749794 L4.60460472,0.89749794 L5.10250206,1.39539528 L10.1428571,1.5 C10.5176218,1.5 10.8569075,1.65190339 11.1025021,1.89749794 C11.3480966,2.14309249 11.5,2.48237821 11.5,2.85714286 L11.5,2.85714286 L11.5,7.14285714 C11.5,7.51762179 11.3480966,7.85690751 11.1025021,8.10250206 C10.8569075,8.34809661 10.5176218,8.5 10.1428571,8.5 L10.1428571,8.5 L1.85714286,8.5 C1.48237821,8.5 1.14309249,8.34809661 0.89749794,8.10250206 C0.651903388,7.85690751 0.5,7.51762179 0.5,7.14285714 L0.5,7.14285714 L0.5,1.85714286 C0.5,1.48237821 0.651903388,1.14309249 0.89749794,0.89749794 C1.14309249,0.651903388 1.48237821,0.5 1.85714286,0.5 L1.85714286,0.5 Z" id="Rectangle" stroke="#1B1F23" fill="url(#linearGradient-1)"></path>
    </g>
</svg>