<?xml version="1.0" encoding="UTF-8"?>
<svg width="12px" height="12px" viewBox="0 0 12 12" version="1.1" xmlns="http://www.w3.org/2000/svg" xmlns:xlink="http://www.w3.org/1999/xlink">
    <title>github</title>
    <defs>
        <linearGradient x1="50%" y1="26.3722738%" x2="50%" y2="99.2111151%" id="linearGradient-1">
            <stop stop-color="#FFFFFF" offset="0%"></stop>
            <stop stop-color="#D9DCEC" offset="100%"></stop>
        </linearGradient>
    </defs>
    <g id="github" stroke="none" stroke-width="1" fill="none" fill-rule="evenodd">
        <g id="Octicons-mark-github">
            <path d="M6,11.625 C9.13555213,11.625 11.6774194,9.43797148 11.6774194,6.30241935 C11.6774194,3.16686723 9.13555213,0.625 6,0.625 C2.86444787,0.625 0.322580645,3.16686723 0.322580645,6.30241935 C0.322580645,9.43797148 2.86444787,11.625 6,11.625 Z" id="Oval" fill="url(#linearGradient-1)"></path>
            <path d="M6,0 C2.685,0 0,2.685 0,6 C0,8.655 1.7175,10.8975 4.1025,11.6925 C4.4025,11.745 4.515,11.565 4.515,11.4075 C4.515,11.265 4.5075,10.7925 4.5075,10.29 C3,10.5675 2.61,9.9225 2.49,9.585 C2.4225,9.4125 2.13,8.88 1.875,8.7375 C1.665,8.625 1.365,8.3475 1.8675,8.34 C2.34,8.3325 2.6775,8.775 2.79,8.955 C3.33,9.8625 4.1925,9.6075 4.5375,9.45 C4.59,9.06 4.7475,8.7975 4.92,8.6475 C3.585,8.4975 2.19,7.98 2.19,5.685 C2.19,5.0325 2.4225,4.4925 2.805,4.0725 C2.745,3.9225 2.535,3.3075 2.865,2.4825 C2.865,2.4825 3.3675,2.325 4.515,3.0975 C4.995,2.9625 5.505,2.895 6.015,2.895 C6.525,2.895 7.035,2.9625 7.515,3.0975 C8.6625,2.3175 9.165,2.4825 9.165,2.4825 C9.495,3.3075 9.285,3.9225 9.225,4.0725 C9.6075,4.4925 9.84,5.025 9.84,5.685 C9.84,7.9875 8.4375,8.4975 7.1025,8.6475 C7.32,8.835 7.5075,9.195 7.5075,9.7575 C7.5075,10.56 7.5,11.205 7.5,11.4075 C7.5,11.565 7.6125,11.7525 7.9125,11.6925 C10.2825,10.8975 12,8.6475 12,6 C12,2.685 9.315,0 6,0 Z" id="Path" fill="#1B1F23"></path>
        </g>
    </g>
</svg>