<?xml version="1.0" encoding="UTF-8"?>
<svg width="11px" height="11px" viewBox="0 0 11 11" version="1.1" xmlns="http://www.w3.org/2000/svg" xmlns:xlink="http://www.w3.org/1999/xlink">
    <title>hn</title>
    <defs>
        <linearGradient x1="50%" y1="22.5267035%" x2="50%" y2="99.2111151%" id="linearGradient-1">
            <stop stop-color="#FFFFFF" offset="0%"></stop>
            <stop stop-color="#D9DCEC" offset="100%"></stop>
        </linearGradient>
    </defs>
    <g id="hn" stroke="none" stroke-width="1" fill="none" fill-rule="evenodd">
        <path d="M9,0.5 C9.41421356,0.5 9.78921356,0.667893219 10.0606602,0.939339828 C10.3321068,1.21078644 10.5,1.58578644 10.5,2 L10.5,2 L10.5,9 C10.5,9.41421356 10.3321068,9.78921356 10.0606602,10.0606602 C9.78921356,10.3321068 9.41421356,10.5 9,10.5 L9,10.5 L2,10.5 C1.58578644,10.5 1.21078644,10.3321068 0.939339828,10.0606602 C0.667893219,9.78921356 0.5,9.41421356 0.5,9 L0.5,9 L0.5,2 C0.5,1.58578644 0.667893219,1.21078644 0.939339828,0.939339828 C1.21078644,0.667893219 1.58578644,0.5 2,0.5 L2,0.5 L9,0.5 Z" id="Rectangle" stroke="#1B1F23" fill="url(#linearGradient-1)"></path>
        <polygon id="Y" fill="#1B1F23" fill-rule="nonzero" points="6.05097219 8.5 6.05873181 5.80999444 8 2.5 6.73960499 2.5 5.52598753 4.7049963 5.47401247 4.7049963 4.26039501 2.5 3 2.5 4.94126819 5.80999444 4.93350857 8.5"></polygon>
    </g>
</svg>